<svg xmlns="http://www.w3.org/2000/svg" width="1024" height="1024" viewBox="0 0 1024 1024">
<g>
<path d="M 343.08 768.08 C341.47,769.68 339.41,771.00 338.50,771.00 C337.59,771.00 335.53,769.68 333.92,768.08 L 331.00 765.15 L 331.00 721.01 C331.00,696.33 331.40,676.13 331.91,675.18 C332.80,673.54 351.21,655.24 377.50,629.87 L 390.50 617.32 L 400.00 615.18 C405.23,614.01 414.00,612.12 419.50,610.99 C425.00,609.85 430.50,608.51 431.71,608.00 C432.93,607.49 435.13,604.70 436.59,601.79 C438.06,598.88 440.10,595.31 441.13,593.85 C442.16,592.39 443.00,590.92 443.00,590.60 C443.00,590.27 424.38,590.00 401.62,590.00 L 360.23 590.00 L 338.87 608.63 C327.11,618.87 315.43,629.11 312.90,631.38 L 308.30 635.50 L 308.62 659.03 C308.80,671.98 308.59,683.87 308.17,685.46 C307.15,689.27 302.93,692.43 300.09,691.53 C298.90,691.15 297.05,689.89 295.97,688.73 C294.11,686.74 294.00,685.09 294.01,658.56 C294.03,638.21 294.37,629.88 295.26,628.23 C295.94,626.99 305.27,618.30 316.00,608.93 C326.73,599.56 339.83,588.09 345.13,583.45 L 354.76 575.00 L 405.69 575.00 C448.25,575.00 456.94,574.77 458.56,573.57 C460.17,572.38 460.25,572.05 459.00,571.59 C458.17,571.29 438.15,566.79 414.50,561.59 L 371.50 552.13 L 351.00 530.93 L 330.50 509.72 L 325.40 489.46 C320.80,471.22 320.42,468.90 321.58,466.14 C323.83,460.80 332.05,460.72 334.66,466.01 C335.34,467.38 337.54,475.70 339.57,484.50 C341.59,493.30 343.86,501.50 344.62,502.71 C345.38,503.93 353.54,512.54 362.75,521.84 L 379.50 538.76 L 412.50 545.98 C430.65,549.96 448.42,553.84 452.00,554.61 C458.55,556.02 461.63,555.82 460.53,554.05 C460.21,553.53 459.14,549.83 458.16,545.84 L 456.37 538.59 L 442.44 533.79 C434.77,531.15 425.49,527.84 421.82,526.44 C414.77,523.74 416.02,524.94 365.29,472.11 L 363.00 469.73 L 363.00 429.86 C363.00,391.33 363.07,389.93 365.00,388.00 C367.75,385.25 373.31,385.35 375.96,388.19 C377.94,390.31 378.00,391.52 378.00,427.33 L 378.00 464.28 L 391.75 478.42 C399.31,486.19 409.68,496.88 414.79,502.17 L 424.09 511.79 L 440.14 517.40 C448.97,520.48 456.54,522.79 456.96,522.52 C457.39,522.26 458.02,520.31 458.35,518.18 C459.48,511.14 465.85,500.13 472.90,493.06 C486.32,479.59 504.14,474.41 523.17,478.45 C532.83,480.50 540.51,484.62 548.27,491.91 C555.91,499.10 561.00,507.35 563.61,516.79 C564.95,521.63 565.70,522.94 566.87,522.49 C567.71,522.17 574.92,519.79 582.89,517.20 L 597.39 512.50 L 607.98 501.50 C613.81,495.45 624.30,484.57 631.29,477.31 L 644.00 464.12 L 644.00 427.70 C644.00,392.36 644.06,391.19 646.07,388.63 C647.67,386.60 649.03,386.00 652.02,386.00 C652.13,386.00 652.24,386.00 652.36,386.00 C653.86,386.00 655.02,386.00 655.92,386.48 C659.00,388.14 659.00,395.50 659.00,428.02 L 659.00 430.17 L 659.00 469.89 L 632.36 497.45 C617.71,512.60 605.68,525.01 605.61,525.02 C605.55,525.03 596.53,528.10 585.57,531.86 L 565.64 538.68 L 563.73 546.91 C562.67,551.44 562.07,555.41 562.40,555.73 C563.00,556.33 572.95,554.29 602.25,547.57 C605.69,546.78 616.26,544.46 625.75,542.42 L 643.00 538.70 L 660.33 520.60 L 677.65 502.50 L 682.06 484.50 C686.83,465.05 688.42,462.00 693.77,462.00 C697.23,462.00 701.00,465.27 701.01,468.29 C701.01,470.67 692.51,504.88 690.88,509.00 C690.34,510.38 680.81,520.77 669.70,532.10 L 649.50 552.70 L 638.50 554.96 C632.45,556.20 625.03,557.84 622.00,558.61 C615.32,560.29 588.73,566.01 573.00,569.14 C566.67,570.40 561.28,571.60 561.00,571.80 C560.73,572.00 561.38,572.80 562.44,573.58 C564.06,574.76 573.03,575.00 616.06,575.00 L 667.73 575.00 L 683.13 588.75 C691.60,596.31 703.92,607.17 710.51,612.88 C718.74,620.01 722.91,622.84 725.01,626.79 C727.17,630.84 727.13,636.07 727.04,648.34 C727.02,651.16 727.00,654.35 727.00,657.98 L 727.00 687.85 L 724.37 689.93 C720.95,692.61 719.80,692.54 716.08,689.41 L 713.00 686.82 L 712.95 660.66 L 712.89 634.50 L 661.91 590.00 L 577.99 590.00 L 580.74 593.81 C582.26,595.91 584.59,599.97 585.92,602.82 C588.73,608.83 587.49,608.33 611.00,612.99 C619.53,614.68 627.86,616.50 629.53,617.03 C631.47,617.66 642.88,628.36 661.28,646.79 L 690.00 675.58 L 690.00 719.22 C690.00,743.23 689.59,763.95 689.09,765.26 C688.59,766.57 686.97,768.44 685.50,769.41 C683.21,770.91 682.37,770.98 679.82,769.93 C678.18,769.25 676.42,767.60 675.92,766.28 C675.41,764.95 675.00,745.28 675.00,722.56 L 675.00 681.25 L 650.45 656.89 C636.94,643.49 625.15,632.10 624.24,631.59 C622.45,630.60 598.53,625.03 595.93,625.01 C594.61,625.00 594.48,625.83 595.11,630.25 C596.51,640.07 596.05,656.13 594.11,665.50 C584.93,709.71 548.06,740.06 506.39,737.70 C467.95,735.52 435.20,705.26 427.53,664.86 C425.77,655.56 425.51,635.31 427.08,629.66 C427.67,627.54 427.89,625.56 427.58,625.24 C426.99,624.66 407.78,628.39 400.90,630.42 C397.92,631.30 391.36,637.10 371.53,656.36 L 346.00 681.17 L 346.00 765.15 ZM 495.50 720.40 C503.57,722.33 518.17,722.36 525.54,720.47 C538.82,717.06 552.74,708.66 561.41,698.82 C577.51,680.57 584.70,652.03 579.10,628.62 C572.34,600.35 553.19,579.31 527.91,572.38 C517.77,569.60 501.62,570.02 491.50,573.32 C461.15,583.22 441.07,611.86 441.01,645.29 C440.98,667.92 448.11,685.76 463.69,702.07 C469.58,708.24 472.70,710.55 480.23,714.32 C485.33,716.87 492.20,719.61 495.50,720.40 ZM 479.04 557.05 C480.19,558.67 481.22,559.99 481.32,559.99 C481.42,559.98 484.42,559.03 488.00,557.88 C500.58,553.84 524.98,554.27 536.26,558.74 C541.17,560.68 542.30,559.75 546.76,550.13 C556.50,529.09 547.93,505.03 527.42,495.83 C520.51,492.73 506.27,492.09 498.85,494.54 C488.18,498.07 479.88,505.46 474.74,516.00 C471.83,521.97 471.57,523.31 471.56,532.50 C471.56,541.26 471.89,543.22 474.25,548.30 C475.73,551.49 477.88,555.43 479.04,557.05 ZM 408.00 305.82 C398.85,313.51 396.01,314.44 391.91,311.13 C390.23,309.77 389.60,308.22 389.60,305.46 C389.60,302.06 390.29,301.02 396.05,295.71 C415.97,277.35 445.14,262.45 475.00,255.37 C487.86,252.32 517.70,251.03 533.18,252.86 C563.87,256.48 595.81,270.36 620.20,290.67 C630.97,299.65 633.32,302.63 632.58,306.37 C631.05,314.01 625.59,315.01 618.34,308.98 C590.96,286.24 569.10,275.39 538.50,269.35 C524.50,266.59 496.86,266.81 482.63,269.80 C454.04,275.82 429.81,287.51 408.00,305.82 ZM 521.03 453.02 C513.21,455.22 507.73,455.14 500.88,452.75 C497.24,451.48 492.57,449.15 490.51,447.57 C478.77,438.62 473.86,421.46 479.07,407.54 C481.64,400.67 489.09,392.33 495.64,388.98 C499.90,386.81 501.79,386.50 511.00,386.50 C520.46,386.50 522.00,386.76 526.50,389.17 C533.04,392.65 539.36,399.26 542.11,405.50 C545.09,412.24 545.74,422.93 543.62,430.24 C540.74,440.13 530.64,450.32 521.03,453.02 ZM 596.08 342.08 C594.47,343.68 592.47,345.00 591.64,345.00 C590.81,345.00 586.84,342.39 582.82,339.21 C538.97,304.48 481.14,304.85 438.86,340.13 C435.66,342.80 433.26,344.00 431.11,344.00 C427.06,344.00 424.00,340.91 424.00,336.82 C424.00,328.93 449.41,311.85 472.84,304.00 C487.18,299.20 498.30,297.70 515.50,298.28 C532.43,298.84 542.94,300.91 557.66,306.57 C572.95,312.44 594.16,326.53 597.53,333.06 C599.64,337.14 599.37,338.78 596.08,342.08 ZM 470.03 372.43 C467.03,374.39 464.10,375.97 463.53,375.93 C459.01,375.64 455.37,370.34 456.53,365.74 C457.76,360.83 476.35,349.97 489.50,346.47 C499.11,343.91 517.95,343.41 528.03,345.44 C538.18,347.49 549.44,352.19 557.82,357.88 C564.42,362.36 566.00,364.40 566.00,368.48 C566.00,371.42 561.98,376.00 559.40,376.00 C558.46,376.00 554.19,373.75 549.90,371.00 C545.49,368.17 538.07,364.63 532.80,362.84 C524.29,359.96 522.44,359.69 511.00,359.72 C494.25,359.77 485.06,362.62 470.03,372.43 ZM 504.00 437.88 C507.72,439.36 515.72,439.20 518.80,437.59 C522.49,435.65 527.65,430.10 528.94,426.68 C531.44,420.05 529.28,410.27 524.32,405.79 C515.78,398.07 501.07,400.10 494.89,409.84 C491.60,415.03 490.94,423.07 493.41,427.80 C495.26,431.32 500.83,436.62 504.00,437.88 Z" fill="rgb(9,183,204)"/>
<path d="M 689.64 510.72 C686.70,514.35 678.94,522.79 670.19,531.82 L 650.50 552.15 L 649.91 552.28 L 669.70 532.10 C678.69,522.93 686.64,514.38 689.64,510.72 ZM 582.76 567.16 C582.23,567.27 581.72,567.38 581.22,567.48 C572.27,569.37 564.52,571.18 564.01,571.49 C563.50,571.81 563.34,572.72 563.65,573.53 C563.81,573.96 564.75,574.27 567.65,574.48 C564.38,574.27 562.99,573.98 562.44,573.58 C561.38,572.80 560.73,572.00 561.00,571.80 C561.28,571.60 566.67,570.40 573.00,569.14 C575.94,568.56 579.26,567.88 582.76,567.16 ZM 636.92 555.29 C633.45,556.08 629.82,556.90 627.39,557.43 C625.95,557.75 623.86,558.21 621.47,558.74 C621.66,558.69 621.84,558.65 622.00,558.61 C624.77,557.91 631.21,556.48 636.92,555.29 Z" fill="rgb(172,234,239)"/>
<path d="M 0.00 512.00 L 0.00 0.00 L 512.00 0.00 L 1024.00 0.00 L 1024.00 512.00 L 1024.00 1024.00 L 512.00 1024.00 L 0.00 1024.00 L 0.00 512.00 ZM 343.08 768.08 L 346.00 765.15 L 346.00 723.16 L 346.00 681.17 L 371.53 656.36 C391.36,637.10 397.92,631.30 400.90,630.42 C407.78,628.39 426.99,624.66 427.58,625.24 C427.89,625.56 427.67,627.54 427.08,629.66 C425.51,635.31 425.77,655.56 427.53,664.86 C435.20,705.26 467.95,735.52 506.39,737.70 C548.06,740.06 584.93,709.71 594.11,665.50 C596.05,656.13 596.51,640.07 595.11,630.25 C594.48,625.83 594.61,625.00 595.93,625.01 C598.53,625.03 622.45,630.60 624.24,631.59 C625.15,632.10 636.94,643.49 650.45,656.89 L 675.00 681.25 L 675.00 722.56 C675.00,745.28 675.41,764.95 675.92,766.28 C676.42,767.60 678.18,769.25 679.82,769.93 C682.37,770.98 683.21,770.91 685.50,769.41 C686.97,768.44 688.59,766.57 689.09,765.26 C689.59,763.95 690.00,743.23 690.00,719.22 L 690.00 675.58 L 661.28 646.79 C642.88,628.36 631.47,617.66 629.53,617.03 C627.86,616.50 619.53,614.68 611.00,612.99 C587.49,608.33 588.73,608.83 585.92,602.82 C584.59,599.97 582.26,595.91 580.74,593.81 L 577.99 590.00 L 619.95 590.00 L 661.91 590.00 L 687.40 612.25 L 712.89 634.50 L 712.95 660.66 L 713.00 686.82 L 716.08 689.41 C719.80,692.54 720.95,692.61 724.37,689.93 L 727.00 687.85 L 727.00 657.98 C727.00,623.16 729.14,629.02 710.51,612.88 C703.92,607.17 691.60,596.31 683.13,588.75 L 667.73 575.00 L 615.97 575.00 C571.39,575.00 564.14,574.80 563.65,573.53 C563.34,572.72 563.50,571.81 564.01,571.49 C564.52,571.18 572.27,569.37 581.22,567.48 C590.17,565.59 602.67,562.90 609.00,561.50 C615.33,560.09 623.60,558.27 627.39,557.43 C631.18,556.60 637.93,555.07 642.39,554.03 L 650.50 552.15 L 670.19 531.82 C681.02,520.65 690.32,510.38 690.87,509.00 C692.49,504.94 701.01,470.70 701.01,468.29 C701.00,465.27 697.23,462.00 693.77,462.00 C688.42,462.00 686.83,465.05 682.06,484.50 L 677.65 502.50 L 660.33 520.60 L 643.00 538.70 L 625.75 542.42 C616.26,544.46 605.69,546.78 602.25,547.57 C572.95,554.29 563.00,556.33 562.40,555.73 C562.07,555.41 562.67,551.44 563.73,546.91 L 565.64 538.68 L 585.57 531.86 C596.53,528.10 605.55,525.03 605.61,525.02 C605.68,525.01 617.71,512.60 632.36,497.45 L 659.00 469.89 L 659.00 430.17 C659.00,385.26 659.12,386.00 652.02,386.00 C649.03,386.00 647.67,386.60 646.07,388.63 C644.06,391.19 644.00,392.36 644.00,427.70 L 644.00 464.12 L 631.29 477.31 C624.30,484.57 613.81,495.45 607.98,501.50 L 597.39 512.50 L 582.89 517.20 C574.92,519.79 567.71,522.17 566.87,522.49 C565.70,522.94 564.95,521.63 563.61,516.79 C561.00,507.35 555.91,499.10 548.27,491.91 C540.51,484.62 532.83,480.50 523.17,478.45 C504.14,474.41 486.32,479.59 472.90,493.06 C465.85,500.13 459.48,511.14 458.35,518.18 C458.02,520.31 457.39,522.26 456.96,522.52 C456.54,522.79 448.97,520.48 440.14,517.40 L 424.09 511.79 L 414.79 502.17 C409.68,496.88 399.31,486.19 391.75,478.42 L 378.00 464.28 L 378.00 427.33 C378.00,391.52 377.94,390.31 375.96,388.19 C373.31,385.35 367.75,385.25 365.00,388.00 C363.07,389.93 363.00,391.33 363.00,429.86 L 363.00 469.73 L 365.29 472.11 C416.02,524.94 414.77,523.74 421.82,526.44 C425.49,527.84 434.77,531.15 442.44,533.79 L 456.37 538.59 L 458.16 545.84 C459.14,549.83 460.21,553.53 460.53,554.05 C461.63,555.82 458.55,556.02 452.00,554.61 C448.42,553.84 430.65,549.96 412.50,545.98 L 379.50 538.76 L 362.75 521.84 C353.54,512.54 345.38,503.93 344.62,502.71 C343.86,501.50 341.59,493.30 339.57,484.50 C337.54,475.70 335.34,467.38 334.66,466.01 C332.05,460.72 323.83,460.80 321.58,466.14 C320.42,468.90 320.80,471.22 325.40,489.46 L 330.50 509.72 L 351.00 530.93 L 371.50 552.13 L 414.50 561.59 C438.15,566.79 458.17,571.29 459.00,571.59 C460.25,572.05 460.17,572.38 458.56,573.57 C456.94,574.77 448.25,575.00 405.69,575.00 L 354.76 575.00 L 345.13 583.45 C339.83,588.09 326.73,599.56 316.00,608.93 C305.27,618.30 295.94,626.99 295.26,628.23 C294.37,629.88 294.03,638.21 294.01,658.56 C294.00,685.09 294.11,686.74 295.97,688.73 C297.05,689.89 298.90,691.15 300.09,691.53 C302.93,692.43 307.15,689.27 308.17,685.46 C308.59,683.87 308.80,671.98 308.62,659.03 L 308.30 635.50 L 312.90 631.38 C315.43,629.11 327.11,618.87 338.87,608.63 L 360.23 590.00 L 401.62 590.00 C424.38,590.00 443.00,590.27 443.00,590.60 C443.00,590.92 442.16,592.39 441.13,593.85 C440.10,595.31 438.06,598.88 436.59,601.79 C435.13,604.70 432.93,607.49 431.71,608.00 C430.50,608.51 425.00,609.85 419.50,610.99 C414.00,612.12 405.23,614.01 400.00,615.18 L 390.50 617.32 L 377.50 629.87 C351.21,655.24 332.80,673.54 331.91,675.18 C331.40,676.13 331.00,696.33 331.00,721.01 L 331.00 765.15 L 333.92 768.08 C335.53,769.68 337.59,771.00 338.50,771.00 C339.41,771.00 341.47,769.68 343.08,768.08 ZM 521.03 453.02 C530.64,450.32 540.74,440.13 543.62,430.24 C545.74,422.93 545.09,412.24 542.11,405.50 C539.36,399.26 533.04,392.65 526.50,389.17 C522.00,386.76 520.46,386.50 511.00,386.50 C501.79,386.50 499.90,386.81 495.64,388.98 C489.09,392.33 481.64,400.67 479.07,407.54 C473.86,421.46 478.77,438.62 490.51,447.57 C492.57,449.15 497.24,451.48 500.88,452.75 C507.73,455.14 513.21,455.22 521.03,453.02 ZM 470.03 372.43 C485.06,362.62 494.25,359.77 511.00,359.72 C522.44,359.69 524.29,359.96 532.80,362.84 C538.07,364.63 545.49,368.17 549.90,371.00 C554.19,373.75 558.46,376.00 559.40,376.00 C561.98,376.00 566.00,371.42 566.00,368.48 C566.00,364.40 564.42,362.36 557.82,357.88 C549.44,352.19 538.18,347.49 528.03,345.44 C517.95,343.41 499.11,343.91 489.50,346.47 C476.35,349.97 457.76,360.83 456.53,365.74 C455.37,370.34 459.01,375.64 463.53,375.93 C464.10,375.97 467.03,374.39 470.03,372.43 ZM 596.08 342.08 C599.37,338.78 599.64,337.14 597.53,333.06 C594.16,326.53 572.95,312.44 557.66,306.57 C542.94,300.91 532.43,298.84 515.50,298.28 C498.30,297.70 487.18,299.20 472.84,304.00 C449.41,311.85 424.00,328.93 424.00,336.82 C424.00,340.91 427.06,344.00 431.11,344.00 C433.26,344.00 435.66,342.80 438.86,340.13 C481.14,304.85 538.97,304.48 582.82,339.21 C586.84,342.39 590.81,345.00 591.64,345.00 C592.47,345.00 594.47,343.68 596.08,342.08 ZM 408.00 305.82 C429.81,287.51 454.04,275.82 482.63,269.80 C496.86,266.81 524.50,266.59 538.50,269.35 C569.10,275.39 590.96,286.24 618.34,308.98 C625.59,315.01 631.05,314.01 632.58,306.37 C633.32,302.63 630.97,299.65 620.20,290.67 C595.81,270.36 563.87,256.48 533.18,252.86 C517.70,251.03 487.86,252.32 475.00,255.37 C445.14,262.45 415.97,277.35 396.05,295.71 C390.29,301.02 389.60,302.06 389.60,305.46 C389.60,308.22 390.23,309.77 391.91,311.13 C396.01,314.44 398.85,313.51 408.00,305.82 ZM 495.50 720.40 C492.20,719.61 485.33,716.87 480.23,714.32 C472.70,710.55 469.58,708.24 463.69,702.07 C448.11,685.76 440.98,667.92 441.01,645.29 C441.07,611.86 461.15,583.22 491.50,573.32 C501.62,570.02 517.77,569.60 527.91,572.38 C553.19,579.31 572.34,600.35 579.10,628.62 C584.70,652.03 577.51,680.57 561.41,698.82 C552.74,708.66 538.82,717.06 525.54,720.47 C518.17,722.36 503.57,722.33 495.50,720.40 ZM 479.04 557.05 C477.88,555.43 475.73,551.49 474.25,548.30 C471.89,543.22 471.56,541.26 471.56,532.50 C471.57,523.31 471.83,521.97 474.74,516.00 C479.88,505.46 488.18,498.07 498.85,494.54 C506.27,492.09 520.51,492.73 527.42,495.83 C547.93,505.03 556.50,529.09 546.76,550.13 C542.30,559.75 541.17,560.68 536.26,558.74 C524.98,554.27 500.58,553.84 488.00,557.88 C484.42,559.03 481.42,559.98 481.32,559.99 C481.22,559.99 480.19,558.67 479.04,557.05 ZM 504.00 437.88 C500.83,436.62 495.26,431.32 493.41,427.80 C490.94,423.07 491.60,415.03 494.89,409.84 C501.07,400.10 515.78,398.07 524.32,405.79 C529.28,410.27 531.44,420.05 528.94,426.68 C527.65,430.10 522.49,435.65 518.80,437.59 C515.72,439.20 507.72,439.36 504.00,437.88 Z" fill="rgb(253,253,253)"/>
</g>
</svg>