<svg xmlns="http://www.w3.org/2000/svg" width="1774" height="591" viewBox="0 0 1774 591">
<g>
<path d="M 1035.32 391.50 C1019.61,395.60 1000.11,391.11 990.11,381.11 C979.23,370.23 975.11,347.50 980.96,330.58 C986.93,313.30 998.27,304.84 1017.38,303.37 C1030.10,302.39 1038.43,304.78 1045.95,311.57 L 1049.77 315.03 L 1050.45 311.43 C1050.82,309.45 1051.02,299.34 1050.90,288.96 C1050.73,274.81 1051.00,269.71 1051.96,268.55 C1053.63,266.54 1062.29,266.44 1063.93,268.41 C1064.80,269.46 1065.02,283.36 1064.80,322.66 L 1064.50 375.50 L 1062.00 379.91 C1058.47,386.14 1054.80,388.68 1051.25,387.36 C1049.09,386.56 1047.70,386.73 1044.78,388.17 C1042.73,389.18 1038.48,390.68 1035.32,391.50 ZM 857.07 424.96 C854.25,426.47 849.78,426.23 847.22,424.44 L 845.00 422.89 L 845.00 376.90 C845.00,328.43 845.65,319.83 849.88,312.51 C852.00,308.83 856.29,307.07 858.99,308.76 C860.56,309.74 862.06,309.39 867.69,306.72 C874.13,303.67 875.12,303.50 886.00,303.50 C899.41,303.50 904.86,305.00 912.42,310.75 C922.19,318.20 927.88,329.87 928.75,344.22 C929.39,354.84 927.85,363.38 923.86,371.27 C912.84,393.11 883.39,399.53 863.60,384.42 L 859.00 380.91 L 859.00 402.42 C859.00,422.66 858.89,423.99 857.07,424.96 ZM 1142.00 390.06 C1137.25,391.68 1132.67,392.36 1125.00,392.57 C1113.33,392.88 1111.78,392.67 1104.54,389.83 C1095.55,386.29 1089.55,380.90 1085.56,372.76 C1081.42,364.33 1080.00,357.75 1080.00,347.07 C1080.00,319.85 1096.76,303.00 1123.84,303.00 C1136.10,303.00 1145.58,306.66 1152.69,314.14 C1161.84,323.76 1162.53,339.56 1154.20,348.34 C1147.68,355.21 1139.42,356.95 1113.25,356.98 C1112.46,356.98 1111.71,356.98 1110.98,356.98 C1101.02,356.99 1097.02,356.99 1096.19,358.61 C1095.63,359.70 1096.48,361.51 1097.90,364.54 C1098.05,364.87 1098.21,365.21 1098.38,365.57 C1103.14,375.79 1113.09,380.69 1127.15,379.73 C1132.48,379.36 1136.66,378.39 1140.57,376.60 C1143.69,375.17 1147.05,374.00 1148.03,374.00 C1150.02,374.00 1155.00,379.38 1155.00,381.53 C1155.00,383.73 1149.02,387.65 1142.00,390.06 ZM 812.47 390.13 C800.89,394.25 785.17,393.47 770.79,388.04 C760.23,384.06 758.76,380.88 764.42,374.30 C765.28,373.30 765.73,372.60 766.36,372.29 C767.54,371.72 769.36,372.49 775.69,375.17 C776.54,375.53 777.48,375.92 778.50,376.35 C796.10,383.75 816.00,378.86 816.00,367.15 C816.00,359.19 811.96,356.78 793.82,353.91 C778.56,351.50 772.06,349.15 766.77,344.15 C762.25,339.88 760.62,335.39 760.82,327.74 C761.14,315.61 769.34,307.19 783.80,304.12 C795.02,301.74 810.19,303.53 819.69,308.34 C827.03,312.06 827.85,313.40 825.45,317.77 C822.25,323.61 821.12,323.81 812.84,320.00 C795.61,312.05 775.02,316.31 775.00,327.82 C774.99,334.28 779.98,336.99 797.50,340.02 C813.52,342.79 819.65,344.99 824.49,349.69 C829.32,354.38 831.00,358.53 831.00,365.79 C831.00,370.20 830.32,372.96 828.25,377.02 C824.92,383.54 820.39,387.30 812.47,390.13 ZM 1016.00 379.12 C1020.69,380.15 1030.19,379.37 1034.38,377.61 C1044.67,373.32 1050.27,363.27 1050.34,349.00 C1050.38,341.76 1049.97,339.58 1047.56,334.27 C1044.27,326.98 1037.28,319.92 1031.44,317.96 C1016.31,312.88 1000.86,320.92 996.11,336.36 C989.84,356.73 998.47,375.29 1016.00,379.12 ZM 875.20 376.41 C881.35,379.48 889.16,379.85 896.31,377.41 C902.11,375.43 909.16,367.93 911.41,361.32 C913.43,355.37 913.48,341.99 911.51,335.33 C905.70,315.78 881.77,309.60 867.79,324.04 C861.88,330.15 859.50,337.22 859.66,348.16 C859.87,362.07 864.94,371.30 875.20,376.41 ZM 1190.82 389.71 C1190.20,390.47 1187.54,391.00 1184.40,391.00 L 1183.94 391.00 C1181.67,391.00 1180.03,391.01 1178.86,390.27 C1175.84,388.37 1175.91,381.56 1176.16,357.23 L 1176.18 355.33 C1176.49,325.36 1176.57,324.35 1178.88,319.24 C1183.58,308.83 1193.28,303.73 1208.58,303.61 C1219.93,303.53 1223.01,305.06 1222.98,310.77 C1222.96,317.06 1222.21,317.50 1211.62,317.50 C1201.36,317.50 1198.99,318.46 1194.56,324.38 C1192.60,327.01 1192.48,328.65 1192.19,357.79 C1192.00,377.59 1191.51,388.88 1190.82,389.71 ZM 960.06 389.43 C958.03,391.87 948.39,391.60 947.04,389.07 C946.37,387.83 946.00,372.98 946.00,347.72 C946.00,310.81 946.12,308.20 947.83,306.65 C950.46,304.27 958.47,304.41 960.19,306.87 C962.09,309.58 961.96,387.14 960.06,389.43 ZM 1096.30 339.15 L 1095.70 344.19 L 1115.60 343.84 C1133.48,343.53 1135.86,343.29 1139.00,341.45 C1141.37,340.07 1142.95,338.12 1143.89,335.42 C1145.16,331.79 1145.10,331.02 1143.23,326.79 C1141.84,323.64 1139.80,321.23 1136.91,319.32 C1133.02,316.74 1131.86,316.50 1123.57,316.51 C1113.18,316.52 1108.57,318.31 1103.17,324.45 C1098.79,329.44 1096.99,333.30 1096.30,339.15 ZM 959.81 286.74 C957.77,288.44 952.94,289.14 950.50,288.09 C943.97,285.30 942.16,275.84 947.31,271.41 C950.57,268.60 956.38,268.18 959.70,270.50 C963.04,272.84 964.40,278.12 962.70,282.16 C961.94,284.00 960.63,286.06 959.81,286.74 Z" fill="rgb(6,5,5)"/>
<path d="M 472.07 453.96 C466.32,457.04 466.00,455.59 466.04,426.55 L 466.08 400.50 L 483.02 384.55 C492.33,375.78 500.53,368.29 501.23,367.89 C501.93,367.50 508.35,365.80 515.50,364.13 C524.10,362.11 528.84,360.51 529.50,359.41 C530.05,358.50 531.51,356.21 532.75,354.33 C533.99,352.45 535.00,350.71 535.00,350.46 C535.00,350.21 523.39,350.00 509.20,350.00 L 483.40 350.00 L 467.23 363.59 L 451.05 377.17 L 450.78 392.23 C450.54,405.30 450.27,407.43 448.75,408.39 C447.47,409.19 446.53,409.19 445.25,408.39 C443.71,407.42 443.47,405.20 443.23,390.20 L 442.95 373.12 L 450.23 367.36 C457.27,361.78 460.18,359.35 473.99,347.55 L 480.49 342.00 L 508.68 342.00 C524.19,342.00 537.11,341.63 537.38,341.19 C537.93,340.30 535.12,339.68 508.65,334.87 L 490.81 331.63 L 477.86 319.06 L 464.91 306.50 L 461.98 296.00 C458.45,283.32 458.24,279.48 461.00,278.00 C465.45,275.62 467.26,278.86 471.17,296.29 C472.40,301.75 473.09,302.68 483.50,312.96 C489.61,318.98 495.65,324.08 497.02,324.36 C502.30,325.47 537.73,331.99 541.88,332.63 C545.42,333.17 546.15,333.03 545.68,331.90 C545.36,331.13 544.55,328.69 543.90,326.48 L 542.71 322.45 L 530.10 318.50 L 517.50 314.55 L 500.73 298.05 L 483.97 281.54 L 484.23 257.63 C484.47,236.12 484.68,233.61 486.25,232.61 C487.52,231.81 488.48,231.81 489.75,232.61 C491.31,233.59 491.56,236.20 492.00,256.11 L 492.50 278.50 L 520.99 306.50 L 531.74 310.14 L 542.48 313.78 L 544.56 308.06 C546.99,301.33 549.60,297.44 554.63,293.02 C560.85,287.56 566.33,285.71 576.50,285.63 C586.50,285.55 590.50,287.00 598.78,293.71 C602.90,297.05 609.00,307.08 609.00,310.50 C609.00,313.25 611.47,313.16 621.09,310.06 L 630.50 307.03 L 644.75 293.27 L 659.00 279.50 L 659.00 257.68 C659.00,244.55 659.41,235.10 660.04,233.93 C661.32,231.54 666.51,231.29 667.39,233.58 C667.73,234.45 668.00,245.59 668.00,258.34 L 668.00 281.52 L 651.25 298.14 L 634.50 314.75 L 624.00 317.95 C609.52,322.36 609.32,322.46 608.72,325.67 C608.43,327.23 607.85,329.58 607.44,330.90 C606.71,333.22 606.83,333.28 610.59,332.72 C612.74,332.40 619.90,330.95 626.50,329.50 C633.10,328.05 643.00,325.98 648.50,324.90 L 658.50 322.93 L 669.16 312.32 L 679.83 301.71 L 682.48 291.13 C683.93,285.31 685.60,279.98 686.19,279.28 C687.61,277.57 692.93,277.65 693.60,279.39 C693.89,280.15 692.67,286.34 690.89,293.14 L 687.66 305.50 L 675.08 318.24 L 662.50 330.98 L 646.50 333.98 C618.38,339.25 613.00,340.41 613.00,341.21 C613.00,341.65 626.46,342.00 642.91,342.00 L 672.83 342.00 L 685.67 353.25 C692.74,359.44 700.65,366.28 703.26,368.46 L 708.00 372.42 L 708.00 389.51 C708.00,407.15 707.60,409.00 703.84,409.00 C700.73,409.00 700.00,405.51 700.00,390.64 L 700.00 376.15 L 684.75 363.10 L 669.50 350.05 L 642.65 350.02 L 615.79 350.00 L 618.65 353.43 C620.22,355.31 622.17,357.82 623.00,359.00 C624.44,361.06 630.57,362.98 645.36,366.00 C649.81,366.91 651.70,368.40 667.63,383.63 L 685.03 400.28 L 684.77 426.78 C684.53,450.76 684.33,453.39 682.75,454.39 C681.47,455.19 680.53,455.19 679.25,454.39 C677.67,453.39 677.47,450.86 677.23,428.86 L 676.97 404.44 L 662.23 389.78 L 647.50 375.12 L 638.86 373.06 C634.11,371.93 629.61,371.00 628.86,371.00 C627.78,371.00 627.50,373.82 627.50,384.83 L 627.50 398.65 L 623.29 407.08 C618.23,417.18 612.96,423.50 605.44,428.50 C591.32,437.87 576.55,440.28 561.68,435.64 C546.17,430.80 535.45,421.43 528.29,406.44 L 524.50 398.50 L 524.50 384.75 C524.50,374.21 524.20,371.00 523.21,371.00 C522.51,371.00 518.13,371.95 513.48,373.12 L 505.03 375.24 L 489.52 389.87 L 474.01 404.50 L 474.01 428.71 C474.00,451.63 473.90,452.99 472.07,453.96 ZM 566.63 427.89 C572.13,429.18 578.07,429.18 584.20,427.88 C605.47,423.36 620.23,403.59 618.70,381.63 C617.51,364.51 608.72,351.01 594.00,343.72 C587.87,340.68 586.88,340.50 576.50,340.50 C566.21,340.50 565.07,340.71 558.78,343.68 C542.88,351.22 533.00,366.45 533.00,383.45 C533.00,401.50 541.06,415.58 555.84,423.35 C559.64,425.35 564.50,427.39 566.63,427.89 ZM 1281.35 388.94 C1277.03,392.34 1269.51,391.25 1266.61,386.80 C1265.79,385.54 1263.56,380.00 1261.66,374.50 C1259.77,369.00 1255.42,356.62 1252.01,347.00 C1243.36,322.64 1241.98,317.91 1241.72,311.82 L 1241.50 306.50 L 1247.75 306.20 C1248.29,306.18 1248.79,306.14 1249.25,306.11 C1250.96,306.00 1252.12,305.93 1253.04,306.36 C1255.22,307.37 1256.10,311.19 1259.88,324.00 C1265.07,341.61 1274.00,367.00 1275.01,367.00 C1276.03,367.00 1282.41,348.96 1288.97,327.50 C1291.83,318.15 1294.82,309.49 1295.61,308.25 C1296.83,306.34 1297.92,306.00 1302.87,306.00 C1307.15,306.00 1309.10,306.46 1310.26,307.75 C1311.12,308.71 1313.02,314.00 1314.48,319.50 C1318.70,335.33 1329.03,367.00 1329.99,367.00 C1331.14,367.00 1335.44,355.58 1342.98,332.50 C1346.39,322.05 1349.72,311.92 1350.38,310.00 C1351.56,306.55 1351.67,306.50 1357.80,306.20 C1362.93,305.96 1364.14,306.20 1364.68,307.62 C1366.06,311.19 1362.95,320.95 1343.87,373.00 C1338.26,388.30 1336.17,391.00 1329.96,391.00 C1322.66,391.00 1320.98,388.30 1313.51,364.50 L 1312.34 360.75 C1305.61,339.29 1303.35,332.11 1301.89,332.27 C1301.07,332.35 1300.50,334.74 1299.52,338.21 C1298.56,341.67 1294.66,354.04 1290.86,365.69 C1285.32,382.72 1283.45,387.29 1281.35,388.94 ZM 554.88 330.33 C556.77,333.38 557.70,334.04 559.38,333.56 C573.27,329.60 581.04,329.34 590.13,332.55 C592.38,333.34 594.62,333.73 595.12,333.43 C596.96,332.29 600.13,324.72 600.66,320.18 C601.55,312.67 599.52,307.22 593.65,301.37 C589.34,297.08 587.54,296.02 582.64,294.93 C571.79,292.52 560.95,296.58 555.26,305.19 C552.79,308.92 552.50,310.24 552.50,317.93 C552.50,325.22 552.86,327.07 554.88,330.33 ZM 513.50 179.94 C505.21,186.22 503.08,187.01 501.05,184.56 C498.74,181.78 500.40,178.66 507.00,173.33 C520.10,162.75 538.26,154.22 554.68,150.91 C570.73,147.68 593.95,148.78 609.50,153.50 C625.21,158.27 653.00,176.37 653.00,181.82 C653.00,184.02 651.12,186.00 649.02,186.00 C648.15,186.00 643.18,182.83 637.97,178.96 C620.29,165.81 603.52,159.53 583.00,158.34 C558.12,156.90 534.02,164.39 513.50,179.94 ZM 588.03 268.46 C579.39,274.20 566.78,272.58 560.21,264.88 C555.80,259.72 555.07,257.82 555.05,251.50 C555.02,239.98 562.81,231.93 574.73,231.17 C588.43,230.29 596.93,237.88 596.98,251.04 C597.01,258.49 593.89,264.57 588.03,268.46 ZM 532.03 201.89 C525.74,206.61 524.69,206.82 522.57,203.80 C520.61,200.99 521.81,198.94 528.35,193.95 C549.77,177.61 580.68,173.54 605.67,183.78 C623.38,191.03 633.43,200.17 628.80,204.80 C626.82,206.78 625.22,206.22 618.71,201.25 C593.71,182.14 557.96,182.40 532.03,201.89 ZM 551.37 222.53 C547.83,225.23 545.06,225.66 543.20,223.80 C539.86,220.46 545.04,214.72 555.97,209.64 C561.73,206.97 563.83,206.57 573.72,206.20 C583.02,205.86 586.10,206.14 591.72,207.85 C599.59,210.25 607.13,214.74 609.59,218.50 C611.25,221.03 611.23,221.21 609.12,223.31 L 606.93 225.50 L 602.72 223.09 C588.84,215.15 579.97,212.97 569.68,214.97 C562.44,216.37 555.91,219.07 551.37,222.53 ZM 571.42 262.58 C575.36,264.29 576.35,264.30 580.36,262.62 C585.41,260.51 588.00,256.57 588.00,251.00 C588.00,242.57 581.07,237.46 572.95,239.90 C561.78,243.24 560.79,257.95 571.42,262.58 Z" fill="rgb(8,183,207)"/>

</g>
</svg>