<svg xmlns="http://www.w3.org/2000/svg" width="1774" height="591" viewBox="0 0 1774 591">
<g>
<path d="M 1144.76 345.45 C1142.08,347.33 1133.50,347.48 1130.00,345.71 C1127.48,344.43 1126.38,341.65 1111.10,298.00 C1109.46,293.33 1105.62,282.36 1102.56,273.62 C1096.68,256.84 1096.04,253.11 1098.57,250.57 C1100.37,248.78 1112.46,248.31 1113.50,249.99 C1113.84,250.54 1116.08,257.18 1118.49,264.74 C1125.95,288.14 1136.04,317.44 1136.96,318.36 C1137.71,319.11 1149.64,284.52 1157.04,260.11 C1160.04,250.22 1161.39,249.00 1169.34,249.00 C1174.14,249.00 1176.06,249.43 1177.21,250.75 C1178.05,251.71 1180.16,257.45 1181.90,263.50 C1186.87,280.76 1199.30,319.00 1199.94,319.00 C1200.56,319.00 1202.67,312.89 1214.88,275.79 C1219.17,262.75 1223.26,251.39 1223.96,250.54 C1225.76,248.37 1237.25,248.40 1239.43,250.57 C1241.74,252.89 1241.49,254.31 1235.90,270.09 C1229.13,289.25 1217.62,322.31 1213.83,333.50 C1210.06,344.66 1207.81,347.00 1200.89,347.00 C1193.01,347.00 1190.68,345.24 1188.11,337.31 C1177.74,305.31 1169.80,281.47 1169.10,280.22 C1168.53,279.20 1164.85,289.17 1157.61,311.31 C1149.43,336.37 1146.46,344.27 1144.76,345.45 Z" fill="rgb(3,175,208)"/>
<path d="M 858.40 347.91 C837.14,352.05 820.57,347.70 808.34,334.76 C798.93,324.82 795.00,313.88 795.00,297.68 C795.00,275.64 803.47,259.40 819.04,251.61 C828.19,247.04 835.36,245.65 847.01,246.21 C858.10,246.75 866.59,249.92 872.08,255.59 C873.90,257.46 875.75,259.00 876.20,259.00 C876.64,259.00 877.00,247.09 877.00,232.54 C877.00,230.86 877.00,229.28 877.00,227.79 C876.98,211.64 876.97,206.41 879.41,204.74 C880.57,203.94 882.30,203.96 884.85,203.99 C885.34,203.99 885.86,204.00 886.41,204.00 C886.97,204.00 887.49,203.98 887.98,203.97 C889.51,203.92 890.71,203.89 891.65,204.36 C895.16,206.13 895.11,214.97 894.86,256.63 C894.84,260.22 894.82,264.06 894.80,268.16 C894.48,327.30 894.47,327.52 892.19,333.19 C889.95,338.75 884.35,345.00 881.60,345.00 C880.87,345.00 879.06,344.05 877.58,342.89 L 874.90 340.78 L 869.10 343.87 C865.91,345.57 861.10,347.39 858.40,347.91 ZM 653.17 386.35 C651.93,387.47 649.60,387.99 645.92,387.97 C645.14,387.97 644.43,387.99 643.78,388.02 C642.19,388.09 640.96,388.14 640.03,387.64 C636.94,386.02 636.95,378.51 636.99,346.24 C636.99,342.24 637.00,337.86 637.00,333.06 C637.00,289.06 637.26,278.83 638.58,271.88 C640.41,262.27 642.22,257.46 645.22,254.26 C647.97,251.34 653.48,251.16 654.98,253.96 C656.01,255.88 656.10,255.87 659.59,253.50 C667.67,248.02 673.50,246.57 687.50,246.57 C698.61,246.57 701.31,246.90 706.10,248.80 C715.07,252.37 721.87,257.76 727.09,265.42 C735.57,277.87 738.41,292.05 735.66,308.29 C731.28,334.23 714.19,349.02 688.64,348.99 C675.89,348.97 667.51,346.51 659.32,340.38 C657.57,339.07 655.88,338.00 655.57,338.00 C655.26,338.00 655.00,348.51 655.00,361.35 C655.00,382.69 654.84,384.83 653.17,386.35 ZM 977.76 347.49 C969.86,349.36 953.17,349.32 946.11,347.42 C933.72,344.09 922.93,335.72 917.70,325.38 C909.62,309.44 909.15,288.12 916.53,272.52 C920.12,264.93 928.58,256.03 935.94,252.11 C950.38,244.42 970.27,243.98 984.72,251.06 C999.90,258.48 1006.71,276.86 999.63,291.33 C993.24,304.39 981.39,308.00 944.84,308.00 L 930.18 308.00 L 931.49 312.95 C933.10,319.05 936.03,323.29 941.30,327.10 C950.19,333.54 965.13,334.90 977.50,330.40 C988.66,326.33 990.22,326.29 993.34,329.99 C995.08,332.06 996.00,334.33 996.00,336.56 C996.00,339.72 995.57,340.19 990.01,342.99 C986.72,344.66 981.20,346.68 977.76,347.49 ZM 593.43 347.32 C577.65,351.24 557.87,349.34 542.20,342.41 C532.23,338.00 531.28,336.09 535.82,329.50 C539.31,324.43 542.71,323.93 549.69,327.44 C558.39,331.81 566.10,333.25 578.42,332.81 C587.40,332.49 590.30,331.99 593.73,330.20 C601.32,326.22 603.48,317.32 598.15,311.99 C594.59,308.43 587.61,306.41 574.00,304.98 C561.19,303.64 552.22,301.66 547.09,299.04 C541.88,296.39 536.51,289.91 534.98,284.44 C533.33,278.54 534.20,268.50 536.79,263.40 C542.86,251.52 558.86,245.13 579.50,246.36 C591.10,247.05 599.04,248.98 607.17,253.09 C614.44,256.76 615.24,259.03 611.49,265.42 C608.24,270.97 606.59,271.17 598.39,267.02 C590.46,263.02 583.39,261.70 572.56,262.20 C560.80,262.75 554.60,265.32 552.41,270.56 C549.92,276.52 552.11,281.49 558.73,284.90 C559.96,285.53 568.65,287.18 578.05,288.56 C601.65,292.04 609.36,295.16 615.36,303.70 C617.80,307.18 618.37,309.15 618.78,315.43 C619.40,325.20 617.80,330.81 612.74,336.56 C608.17,341.75 601.97,345.21 593.43,347.32 ZM 835.95 331.64 C852.03,335.98 868.33,328.18 874.00,313.44 C877.26,304.93 877.27,290.91 874.01,282.53 C871.05,274.90 863.51,266.75 857.15,264.29 C850.24,261.63 838.05,261.93 831.22,264.95 C819.83,269.96 813.00,282.17 813.00,297.50 C813.00,315.05 821.54,327.75 835.95,331.64 ZM 679.38 332.11 C688.81,334.55 702.77,330.60 709.21,323.67 C718.73,313.41 721.03,294.51 714.50,280.21 C709.17,268.55 700.35,262.70 688.00,262.63 C673.70,262.55 664.66,267.86 658.79,279.77 C655.65,286.16 655.50,286.97 655.50,297.98 C655.50,307.64 655.85,310.25 657.64,314.12 C661.74,322.99 669.75,329.62 679.38,332.11 ZM 1037.96 344.07 C1037.10,345.69 1035.83,346.00 1030.16,346.00 C1026.24,346.00 1022.90,345.50 1022.20,344.80 C1021.31,343.91 1021.00,334.43 1021.00,308.34 C1021.00,274.75 1021.10,272.80 1023.14,267.29 C1027.33,255.98 1036.90,249.43 1052.85,246.96 C1060.97,245.70 1071.26,247.02 1074.24,249.72 C1075.88,251.19 1076.12,252.33 1075.64,256.36 C1074.78,263.67 1074.07,264.14 1064.91,263.37 C1055.18,262.56 1048.93,264.13 1044.58,268.49 C1039.39,273.68 1039.00,276.64 1039.00,310.93 C1039.00,330.53 1038.61,342.85 1037.96,344.07 ZM 773.75 344.75 C771.61,346.45 762.49,346.81 759.62,345.31 L 757.00 343.94 L 757.00 298.04 C757.00,257.65 757.19,251.95 758.57,250.57 C759.67,249.47 762.06,249.00 766.54,249.00 C771.83,249.00 773.11,249.33 773.96,250.93 C775.58,253.95 775.37,343.46 773.75,344.75 ZM 930.00 289.54 L 930.00 292.00 L 949.32 292.00 C970.94,292.00 976.76,290.95 981.27,286.24 C985.13,282.21 985.57,278.42 982.80,273.01 C978.78,265.15 970.52,261.42 959.00,262.24 C950.55,262.85 943.01,266.18 938.16,271.44 C934.21,275.73 930.00,285.06 930.00,289.54 ZM 772.34 226.95 C766.63,231.44 757.14,228.41 755.42,221.53 C754.32,217.17 755.71,211.69 758.52,209.25 C761.62,206.56 769.34,206.15 772.70,208.50 C778.00,212.21 777.79,222.66 772.34,226.95 Z" fill="rgb(18,16,17)"/>
<path d="M 0.00 295.50 L 0.00 0.00 L 887.00 0.00 L 1774.00 0.00 L 1774.00 295.50 L 1774.00 591.00 L 887.00 591.00 L 0.00 591.00 L 0.00 295.50 ZM 653.17 386.35 C654.84,384.83 655.00,382.69 655.00,361.35 C655.00,348.51 655.26,338.00 655.57,338.00 C655.88,338.00 657.57,339.07 659.32,340.38 C667.51,346.51 675.89,348.97 688.64,348.99 C714.19,349.02 731.28,334.23 735.66,308.29 C738.41,292.05 735.57,277.87 727.09,265.42 C721.87,257.76 715.07,252.37 706.10,248.80 C701.31,246.90 698.61,246.57 687.50,246.57 C673.50,246.57 667.67,248.02 659.59,253.50 C656.10,255.87 656.01,255.88 654.98,253.96 C653.48,251.16 647.97,251.34 645.22,254.26 C642.22,257.46 640.41,262.27 638.58,271.88 C637.26,278.83 637.00,289.06 637.00,333.06 C637.00,393.09 636.16,387.91 645.92,387.97 C649.60,387.99 651.93,387.47 653.17,386.35 ZM 593.43 347.32 C601.97,345.21 608.17,341.75 612.74,336.56 C617.80,330.81 619.40,325.20 618.78,315.43 C618.37,309.15 617.80,307.18 615.36,303.70 C609.36,295.16 601.65,292.04 578.05,288.56 C568.65,287.18 559.96,285.53 558.73,284.90 C552.11,281.49 549.92,276.52 552.41,270.56 C554.60,265.32 560.80,262.75 572.56,262.20 C583.39,261.70 590.46,263.02 598.39,267.02 C606.59,271.17 608.24,270.97 611.49,265.42 C615.24,259.03 614.44,256.76 607.17,253.09 C599.04,248.98 591.10,247.05 579.50,246.36 C558.86,245.13 542.86,251.52 536.79,263.40 C534.20,268.50 533.33,278.54 534.98,284.44 C536.51,289.91 541.88,296.39 547.09,299.04 C552.22,301.66 561.19,303.64 574.00,304.98 C587.61,306.41 594.59,308.43 598.15,311.99 C603.48,317.32 601.32,326.22 593.73,330.20 C590.30,331.99 587.40,332.49 578.42,332.81 C566.10,333.25 558.39,331.81 549.69,327.44 C542.71,323.93 539.31,324.43 535.82,329.50 C531.28,336.09 532.23,338.00 542.20,342.41 C557.87,349.34 577.65,351.24 593.43,347.32 ZM 858.40 347.91 C861.10,347.39 865.91,345.57 869.10,343.87 L 874.90 340.78 L 877.58 342.89 C879.06,344.05 880.87,345.00 881.60,345.00 C884.35,345.00 889.95,338.75 892.19,333.19 C894.47,327.52 894.48,327.30 894.80,268.16 C895.17,199.66 895.73,204.00 886.41,204.00 C876.42,204.00 877.00,202.23 877.00,232.54 C877.00,247.09 876.64,259.00 876.20,259.00 C875.75,259.00 873.90,257.46 872.08,255.59 C866.59,249.92 858.10,246.75 847.01,246.21 C835.36,245.65 828.19,247.04 819.04,251.61 C803.47,259.40 795.00,275.64 795.00,297.68 C795.00,313.88 798.93,324.82 808.34,334.76 C820.57,347.70 837.14,352.05 858.40,347.91 ZM 977.76 347.49 C981.20,346.68 986.72,344.66 990.01,342.99 C995.57,340.19 996.00,339.72 996.00,336.56 C996.00,334.33 995.08,332.06 993.34,329.99 C990.22,326.29 988.66,326.33 977.50,330.40 C965.13,334.90 950.19,333.54 941.30,327.10 C936.03,323.29 933.10,319.05 931.49,312.95 L 930.18 308.00 L 944.84 308.00 C981.39,308.00 993.24,304.39 999.63,291.33 C1006.71,276.86 999.90,258.48 984.72,251.06 C970.27,243.98 950.38,244.42 935.94,252.11 C928.58,256.03 920.12,264.93 916.53,272.52 C909.15,288.12 909.62,309.44 917.70,325.38 C922.93,335.72 933.72,344.09 946.11,347.42 C953.17,349.32 969.86,349.36 977.76,347.49 ZM 773.75 344.75 C775.37,343.46 775.58,253.95 773.96,250.93 C773.11,249.33 771.83,249.00 766.54,249.00 C762.06,249.00 759.67,249.47 758.57,250.57 C757.19,251.95 757.00,257.65 757.00,298.04 L 757.00 343.94 L 759.62 345.31 C762.49,346.81 771.61,346.45 773.75,344.75 ZM 1144.76 345.45 C1146.46,344.27 1149.43,336.37 1157.61,311.31 C1164.85,289.17 1168.53,279.20 1169.10,280.22 C1169.80,281.47 1177.74,305.31 1188.11,337.31 C1190.68,345.24 1193.01,347.00 1200.89,347.00 C1207.81,347.00 1210.06,344.66 1213.83,333.50 C1217.62,322.31 1229.13,289.25 1235.90,270.09 C1241.49,254.31 1241.74,252.89 1239.43,250.57 C1237.25,248.40 1225.76,248.37 1223.96,250.54 C1223.26,251.39 1219.17,262.75 1214.88,275.79 C1202.67,312.89 1200.56,319.00 1199.94,319.00 C1199.30,319.00 1186.87,280.76 1181.90,263.50 C1180.16,257.45 1178.05,251.71 1177.21,250.75 C1176.06,249.43 1174.14,249.00 1169.34,249.00 C1161.39,249.00 1160.04,250.22 1157.04,260.11 C1149.64,284.52 1137.71,319.11 1136.96,318.36 C1136.04,317.44 1125.95,288.14 1118.49,264.74 C1116.08,257.18 1113.84,250.54 1113.50,249.99 C1112.46,248.31 1100.37,248.78 1098.57,250.57 C1096.04,253.11 1096.68,256.84 1102.56,273.62 C1105.62,282.36 1109.46,293.33 1111.10,298.00 C1126.38,341.65 1127.48,344.43 1130.00,345.71 C1133.50,347.48 1142.08,347.33 1144.76,345.45 ZM 1037.96 344.07 C1038.61,342.85 1039.00,330.53 1039.00,310.93 C1039.00,276.64 1039.39,273.68 1044.58,268.49 C1048.93,264.13 1055.18,262.56 1064.91,263.37 C1074.07,264.14 1074.78,263.67 1075.64,256.36 C1076.12,252.33 1075.88,251.19 1074.24,249.72 C1071.26,247.02 1060.97,245.70 1052.85,246.96 C1036.90,249.43 1027.33,255.98 1023.14,267.29 C1021.10,272.80 1021.00,274.75 1021.00,308.34 C1021.00,334.43 1021.31,343.91 1022.20,344.80 C1022.90,345.50 1026.24,346.00 1030.16,346.00 C1035.83,346.00 1037.10,345.69 1037.96,344.07 ZM 772.34 226.95 C777.79,222.66 778.00,212.21 772.70,208.50 C769.34,206.15 761.62,206.56 758.52,209.25 C755.71,211.69 754.32,217.17 755.42,221.53 C757.14,228.41 766.63,231.44 772.34,226.95 ZM 679.38 332.11 C669.75,329.62 661.74,322.99 657.64,314.12 C655.85,310.25 655.50,307.64 655.50,297.98 C655.50,286.97 655.65,286.16 658.79,279.77 C664.66,267.86 673.70,262.55 688.00,262.63 C700.35,262.70 709.17,268.55 714.50,280.21 C721.03,294.51 718.73,313.41 709.21,323.67 C702.77,330.60 688.81,334.55 679.38,332.11 ZM 835.95 331.64 C821.54,327.75 813.00,315.05 813.00,297.50 C813.00,282.17 819.83,269.96 831.22,264.95 C838.05,261.93 850.24,261.63 857.15,264.29 C863.51,266.75 871.05,274.90 874.01,282.53 C877.27,290.91 877.26,304.93 874.00,313.44 C868.33,328.18 852.03,335.98 835.95,331.64 ZM 930.00 289.54 C930.00,285.06 934.21,275.73 938.16,271.44 C943.01,266.18 950.55,262.85 959.00,262.24 C970.52,261.42 978.78,265.15 982.80,273.01 C985.57,278.42 985.13,282.21 981.27,286.24 C976.76,290.95 970.94,292.00 949.32,292.00 L 930.00 292.00 L 930.00 289.54 Z" fill="rgb(253,254,254)"/>
</g>
</svg>